<?xml version="1.0" encoding="UTF-8"?><svg id="a" xmlns="http://www.w3.org/2000/svg" xmlns:xlink="http://www.w3.org/1999/xlink" viewBox="0 0 3751.58 1194.53"><defs><style>.c,.d{fill:none;}.d{stroke:#6288c0;stroke-width:1.59px;}.e{clip-path:url(#b);}</style><clipPath id="b"><rect class="c" y="75.31" width="3484.21" height="17.37"/></clipPath></defs><g class="e"><path class="d" d="M0,84c8.54-8.49,25.62-8.49,34.16,0,8.54,8.49,25.62,8.49,34.16,0,8.54-8.49,25.62-8.49,34.16,0,8.54,8.49,25.62,8.49,34.16,0,8.54-8.49,25.62-8.49,34.16,0,8.54,8.49,25.62,8.49,34.16,0,8.54-8.49,25.62-8.49,34.16,0,8.54,8.49,25.62,8.49,34.16,0,8.54-8.49,25.62-8.49,34.16,0,8.54,8.49,25.62,8.49,34.16,0,8.54-8.49,25.62-8.49,34.16,0,8.54,8.49,25.62,8.49,34.16,0,8.54-8.49,25.62-8.49,34.16,0,8.54,8.49,25.62,8.49,34.16,0,8.54-8.49,25.62-8.49,34.16,0s25.62,8.49,34.16,0c8.54-8.49,25.62-8.49,34.16,0,8.54,8.49,25.62,8.49,34.16,0,8.54-8.49,25.62-8.49,34.16,0,8.54,8.49,25.62,8.49,34.16,0,8.54-8.49,25.62-8.49,34.16,0,8.54,8.49,25.62,8.49,34.16,0,8.54-8.49,25.62-8.49,34.16,0,8.54,8.49,25.62,8.49,34.16,0,8.54-8.49,25.62-8.49,34.16,0,8.54,8.49,25.62,8.49,34.16,0,8.54-8.49,25.62-8.49,34.16,0,8.54,8.49,25.62,8.49,34.16,0,8.54-8.49,25.62-8.49,34.16,0,8.54,8.49,25.62,8.49,34.16,0,8.54-8.49,25.62-8.49,34.16,0s25.62,8.49,34.16,0c8.54-8.49,25.62-8.49,34.16,0,8.54,8.49,25.62,8.49,34.16,0,8.54-8.49,25.62-8.49,34.16,0,8.54,8.49,25.62,8.49,34.16,0,8.54-8.49,25.62-8.49,34.16,0,8.54,8.49,25.62,8.49,34.16,0,8.54-8.49,25.62-8.49,34.16,0,8.54,8.49,25.62,8.49,34.16,0,8.54-8.49,25.62-8.49,34.16,0,8.54,8.49,25.62,8.49,34.16,0,8.54-8.49,25.62-8.49,34.16,0,8.54,8.49,25.62,8.49,34.16,0,8.54-8.49,25.62-8.49,34.16,0,8.54,8.49,25.62,8.49,34.16,0,8.54-8.49,25.62-8.49,34.16,0,8.54,8.49,25.62,8.49,34.16,0,8.54-8.49,25.62-8.49,34.16,0,8.54,8.49,25.62,8.49,34.16,0,8.54-8.49,25.62-8.49,34.16,0,8.54,8.49,25.62,8.49,34.16,0,8.54-8.49,25.62-8.49,34.16,0,8.54,8.49,25.62,8.49,34.16,0,8.54-8.49,25.62-8.49,34.16,0,8.54,8.49,25.62,8.49,34.16,0,8.54-8.49,25.62-8.49,34.16,0,8.54,8.49,25.62,8.49,34.16,0,8.54-8.49,25.62-8.49,34.16,0,8.54,8.49,25.62,8.49,34.16,0,8.54-8.49,25.62-8.49,34.16,0,8.54,8.49,25.62,8.49,34.16,0,8.54-8.49,25.62-8.49,34.16,0,8.54,8.49,25.62,8.49,34.16,0,8.54-8.49,25.62-8.49,34.16,0,8.54,8.49,25.62,8.49,34.16,0,8.54-8.49,25.62-8.49,34.16,0,8.54,8.49,25.62,8.49,34.16,0,8.54-8.49,25.62-8.49,34.16,0,8.54,8.49,25.62,8.49,34.16,0,8.54-8.49,25.62-8.49,34.16,0,8.54,8.49,25.62,8.49,34.16,0,8.54-8.49,25.62-8.49,34.16,0,8.54,8.49,25.62,8.49,34.16,0,8.54-8.49,25.62-8.49,34.16,0,8.54,8.49,25.62,8.49,34.16,0,8.54-8.49,25.62-8.49,34.16,0,8.54,8.49,25.62,8.49,34.16,0,8.54-8.49,25.62-8.49,34.16,0,8.54,8.49,25.62,8.49,34.16,0,8.54-8.49,25.62-8.49,34.16,0,8.54,8.49,25.62,8.49,34.16,0,8.54-8.49,25.62-8.49,34.16,0,8.54,8.49,25.62,8.49,34.16,0,8.54-8.49,25.62-8.49,34.16,0,8.54,8.49,25.62,8.49,34.16,0,8.54-8.49,25.62-8.49,34.16,0s25.62,8.49,34.16,0c8.54-8.49,25.62-8.49,34.16,0,8.54,8.49,25.62,8.49,34.16,0,8.54-8.49,25.62-8.49,34.16,0,8.54,8.49,25.62,8.49,34.16,0,8.54-8.49,25.62-8.49,34.16,0,8.54,8.49,25.62,8.49,34.16,0,8.54-8.49,25.62-8.49,34.16,0,8.54,8.49,25.62,8.49,34.16,0,8.54-8.49,25.62-8.49,34.16,0,8.54,8.49,25.62,8.49,34.16,0,8.54-8.49,25.62-8.49,34.16,0,8.54,8.49,25.62,8.49,34.16,0,8.54-8.49,25.62-8.49,34.16,0,8.54,8.49,25.62,8.49,34.16,0"/></g></svg>