<?xml version="1.0" encoding="UTF-8"?><svg xmlns="http://www.w3.org/2000/svg" xmlns:xlink="http://www.w3.org/1999/xlink" viewBox="0 0 3484.21 17.37"><defs><style>.e,.f{fill:none;}.f{stroke:#6288c0;stroke-width:1.59px;}.g{clip-path:url(#d);}</style><clipPath id="d"><rect class="e" width="3484.21" height="17.37"/></clipPath></defs><g id="a"/><g id="b"><g id="c"><g class="g"><path class="f" d="M0,8.69C8.54,.19,25.62,.19,34.16,8.69c8.54,8.49,25.62,8.49,34.16,0C76.86,.19,93.94,.19,102.48,8.69c8.54,8.49,25.62,8.49,34.16,0,8.54-8.49,25.62-8.49,34.16,0,8.54,8.49,25.62,8.49,34.16,0,8.54-8.49,25.62-8.49,34.16,0,8.54,8.49,25.62,8.49,34.16,0,8.54-8.49,25.62-8.49,34.16,0,8.54,8.49,25.62,8.49,34.16,0,8.54-8.49,25.62-8.49,34.16,0,8.54,8.49,25.62,8.49,34.16,0,8.54-8.49,25.62-8.49,34.16,0,8.54,8.49,25.62,8.49,34.16,0,8.54-8.49,25.62-8.49,34.16,0s25.62,8.49,34.16,0c8.54-8.49,25.62-8.49,34.16,0,8.54,8.49,25.62,8.49,34.16,0,8.54-8.49,25.62-8.49,34.16,0,8.54,8.49,25.62,8.49,34.16,0,8.54-8.49,25.62-8.49,34.16,0,8.54,8.49,25.62,8.49,34.16,0,8.54-8.49,25.62-8.49,34.16,0,8.54,8.49,25.62,8.49,34.16,0,8.54-8.49,25.62-8.49,34.16,0,8.54,8.49,25.62,8.49,34.16,0,8.54-8.49,25.62-8.49,34.16,0,8.54,8.49,25.62,8.49,34.16,0,8.54-8.49,25.62-8.49,34.16,0,8.54,8.49,25.62,8.49,34.16,0,8.54-8.49,25.62-8.49,34.16,0s25.62,8.49,34.16,0c8.54-8.49,25.62-8.49,34.16,0,8.54,8.49,25.62,8.49,34.16,0,8.54-8.49,25.62-8.49,34.16,0,8.54,8.49,25.62,8.49,34.16,0,8.54-8.49,25.62-8.49,34.16,0,8.54,8.49,25.62,8.49,34.16,0,8.54-8.49,25.62-8.49,34.16,0,8.54,8.49,25.62,8.49,34.16,0,8.54-8.49,25.62-8.49,34.16,0,8.54,8.49,25.62,8.49,34.16,0,8.54-8.49,25.62-8.49,34.16,0,8.54,8.49,25.62,8.49,34.16,0,8.54-8.49,25.62-8.49,34.16,0,8.54,8.49,25.62,8.49,34.16,0,8.54-8.49,25.62-8.49,34.16,0,8.54,8.49,25.62,8.49,34.16,0,8.54-8.49,25.62-8.49,34.16,0,8.54,8.49,25.62,8.49,34.16,0,8.54-8.49,25.62-8.49,34.16,0,8.54,8.49,25.62,8.49,34.16,0,8.54-8.49,25.62-8.49,34.16,0,8.54,8.49,25.62,8.49,34.16,0,8.54-8.49,25.62-8.49,34.16,0,8.54,8.49,25.62,8.49,34.16,0,8.54-8.49,25.62-8.49,34.16,0,8.54,8.49,25.62,8.49,34.16,0,8.54-8.49,25.62-8.49,34.16,0,8.54,8.49,25.62,8.49,34.16,0,8.54-8.49,25.62-8.49,34.16,0,8.54,8.49,25.62,8.49,34.16,0,8.54-8.49,25.62-8.49,34.16,0,8.54,8.49,25.62,8.49,34.16,0,8.54-8.49,25.62-8.49,34.16,0,8.54,8.49,25.62,8.49,34.16,0,8.54-8.49,25.62-8.49,34.16,0,8.54,8.49,25.62,8.49,34.16,0,8.54-8.49,25.62-8.49,34.16,0,8.54,8.49,25.62,8.49,34.16,0,8.54-8.49,25.62-8.49,34.16,0,8.54,8.49,25.62,8.49,34.16,0,8.54-8.49,25.62-8.49,34.16,0,8.54,8.49,25.62,8.49,34.16,0,8.54-8.49,25.62-8.49,34.16,0,8.54,8.49,25.62,8.49,34.16,0,8.54-8.49,25.62-8.49,34.16,0,8.54,8.49,25.62,8.49,34.16,0,8.54-8.49,25.62-8.49,34.16,0,8.54,8.49,25.62,8.49,34.16,0,8.54-8.49,25.62-8.49,34.16,0,8.54,8.49,25.62,8.49,34.16,0,8.54-8.49,25.62-8.49,34.16,0,8.54,8.49,25.62,8.49,34.16,0,8.54-8.49,25.62-8.49,34.16,0,8.54,8.49,25.62,8.49,34.16,0,8.54-8.49,25.62-8.49,34.16,0s25.62,8.49,34.16,0c8.54-8.49,25.62-8.49,34.16,0,8.54,8.49,25.62,8.49,34.16,0,8.54-8.49,25.62-8.49,34.16,0,8.54,8.49,25.62,8.49,34.16,0,8.54-8.49,25.62-8.49,34.16,0,8.54,8.49,25.62,8.49,34.16,0,8.54-8.49,25.62-8.49,34.16,0,8.54,8.49,25.62,8.49,34.16,0,8.54-8.49,25.62-8.49,34.16,0,8.54,8.49,25.62,8.49,34.16,0,8.54-8.49,25.62-8.49,34.16,0,8.54,8.49,25.62,8.49,34.16,0,8.54-8.49,25.62-8.49,34.16,0,8.54,8.49,25.62,8.49,34.16,0"/></g></g></g></svg>